IKResults
version=1
nRows=8
nColumns=63
inDegrees=yes

Units are S.I. units (second, meters, Newtons, ...)
If the header above contains a line with 'inDegrees', this indicates whether rotational values are in degrees (yes) or radians (no).

endheader
time	pelvis_tilt	pelvis_list	pelvis_rotation	pelvis_tx	pelvis_ty	pelvis_tz	hip_flexion_r	hip_adduction_r	hip_rotation_r	knee_angle_r	knee_angle_r_beta	ankle_angle_r	subtalar_angle_r	mtp_angle_r	hip_flexion_l	hip_adduction_l	hip_rotation_l	knee_angle_l	knee_angle_l_beta	ankle_angle_l	subtalar_angle_l	mtp_angle_l	L5_S1_Flex_Ext	L5_S1_Lat_Bending	L5_S1_axial_rotation	L4_L5_Flex_Ext	L4_L5_Lat_Bending	L4_L5_axial_rotation	L3_L4_Flex_Ext	L3_L4_Lat_Bending	L3_L4_axial_rotation	L2_L3_Flex_Ext	L2_L3_Lat_Bending	L2_L3_axial_rotation	L1_L2_Flex_Ext	L1_L2_Lat_Bending	L1_L2_axial_rotation	L1_T12_Flex_Ext	L1_T12_Lat_Bending	L1_T12_axial_rotation	Abs_r3	Abs_r2	Abs_r1	Abs_t1	Abs_t2	neck_flexion	neck_bending	neck_rotation	arm_flex_r	arm_add_r	arm_rot_r	elbow_flex_r	pro_sup_r	wrist_flex_r	wrist_dev_r	arm_flex_l	arm_add_l	arm_rot_l	elbow_flex_l	pro_sup_l	wrist_flex_l	wrist_dev_l
      6.03333333	    132.85528120	     75.46526576	    -90.79006506	     -0.35320929	      0.36154116	      0.22828085	    -22.91870796	     -1.46874326	    -33.08289982	     22.71977654	      0.39653491	      0.00000000	      0.00000000	      0.00000000	    -37.28021858	     -3.59055267	    -34.70917729	      0.15220550	      0.00265649	   -116.99252564	    -15.11534009	      0.00000000	     -5.95387571	      1.42294395	    -11.16867942	    -11.05694259	      1.89251546	    -11.86672188	     -9.78162241	      3.45974593	    -11.86672188	     -6.80468455	      3.45974593	     -9.77259449	     -5.52876899	      2.90166731	     -9.07455203	     -3.40204458	      2.20414018	     -8.37650956	    -42.52793883	     16.09662659	    -62.11684431	      0.00000000	      0.00000000	     20.25658501	      1.47533026	    -40.26832544	    115.27056901	     32.46755591	    -37.85912602	     39.27314813	     89.99559364	      0.00000000	      0.00000000	     34.38433637	      2.30990638	     35.03812190	     37.95421988	     89.99559364	      0.00000000	      0.00000000
      6.06666667	    132.87019465	     75.47219651	    -90.79379951	     -0.35345329	      0.36149115	      0.22842307	    -22.92387616	     -1.46913758	    -33.09335560	     22.66894545	      0.39564774	      0.00000000	      0.00000000	      0.00000000	    -37.22243835	     -3.58278575	    -34.70192458	      0.15082445	      0.00263238	   -116.93996120	    -15.10845031	      0.00000000	     -5.95968995	      1.42264579	    -11.17140788	    -11.06774020	      1.89211890	    -11.86962087	     -9.79117462	      3.45902098	    -11.86962087	     -6.81132964	      3.45902098	     -9.77498189	     -5.53416809	      2.90105930	     -9.07676890	     -3.40536684	      2.20367833	     -8.37855591	    -42.56946933	     16.09325374	    -62.13201920	      0.00000000	      0.00000000	     20.24679777	      1.49071464	    -40.22053851	    115.28959900	     32.45237167	    -37.86288063	     39.29450018	     89.99559364	      0.00000000	      0.00000000	     34.39350330	      2.31954955	     35.05272398	     37.95641478	     89.99559364	      0.00000000	      0.00000000
      6.10000000	    132.98355628	     75.43827004	    -90.84289275	     -0.35362087	      0.36154515	      0.22863317	    -23.18662143	     -1.39674447	    -33.52494211	     22.01098863	      0.38416422	      0.00000000	      0.00000000	      0.00000000	    -37.21875966	     -3.58019114	    -34.71088971	      0.14883082	      0.00259759	   -116.75875919	    -15.15066298	      0.00000000	     -5.96659557	      1.42228945	    -11.18275326	    -11.08056463	      1.89164496	    -11.88167534	     -9.80251986	      3.45815456	    -11.88167534	     -6.81922207	      3.45815456	     -9.78490911	     -5.54058064	      2.90033264	     -9.08598703	     -3.40931271	      2.20312635	     -8.38706495	    -42.61879547	     16.08922267	    -62.19511883	      0.00000000	      0.00000000	     20.40566784	      1.66446675	    -39.93369001	    115.28381840	     32.47495669	    -37.88755900	     39.36954264	     89.99559364	      0.00000000	      0.00000000	     34.44557102	      2.32765984	     35.23476916	     37.89550515	     89.99559364	      0.00000000	      0.00000000
      6.13333333	    133.02298641	     75.42531101	    -90.82658221	     -0.35386023	      0.36149934	      0.22874090	    -23.22334184	     -1.37823686	    -33.55727427	     21.97907009	      0.38360714	      0.00000000	      0.00000000	      0.00000000	    -37.18782649	     -3.59548878	    -34.69495347	      0.14761794	      0.00257642	   -116.72247498	    -15.14323139	      0.00000000	     -5.97102298	      1.42250038	    -11.18917289	    -11.08878678	      1.89192550	    -11.88849619	     -9.80979366	      3.45866742	    -11.88849619	     -6.82428217	      3.45866742	     -9.79052628	     -5.54469194	      2.90076277	     -9.09120297	     -3.41184253	      2.20345308	     -8.39187966	    -42.65042006	     16.09160876	    -62.23082284	      0.00000000	      0.00000000	     20.38222917	      1.67996702	    -39.88305450	    115.29282657	     32.46207800	    -37.89412523	     39.38758641	     89.99559364	      0.00000000	      0.00000000	     34.45279792	      2.34016141	     35.25961686	     37.89957599	     89.99559364	      0.00000000	      0.00000000
      6.16666667	    133.07392739	     75.41136008	    -90.81125186	     -0.35408180	      0.36148749	      0.22883808	    -23.28669757	     -1.35735054	    -33.61190134	     21.90907123	      0.38238543	      0.00000000	      0.00000000	      0.00000000	    -37.16500093	     -3.61527651	    -34.67042846	      0.14463036	      0.00252428	   -116.68530909	    -15.14589438	      0.00000000	     -5.97479368	      1.42342794	    -11.19781810	    -11.09578934	      1.89315916	    -11.89768173	     -9.81598853	      3.46092269	    -11.89768173	     -6.82859169	      3.46092269	     -9.79809083	     -5.54819341	      2.90265425	     -9.09822720	     -3.41399711	      2.20488988	     -8.39836357	    -42.67735375	     16.10210152	    -62.27890491	      0.00000000	      0.00000000	     20.36334401	      1.69899924	    -39.82163899	    115.29570531	     32.45503809	    -37.90175847	     39.40580374	     89.99559364	      0.00000000	      0.00000000	     34.46577735	      2.35334363	     35.29363901	     37.89701449	     89.99559364	      0.00000000	      0.00000000
      6.20000000	    134.12967872	     74.72491144	    -90.63769657	     -0.35479330	      0.36198104	      0.22969722	    -24.57663431	     -0.99928139	    -35.80625711	     20.84465682	      0.36380789	      0.00000000	      0.00000000	      0.00000000	    -37.68848546	     -4.13124536	    -33.95511444	      0.14600956	      0.00254835	   -116.99861406	    -15.60206916	      0.00000000	     -6.03447352	      1.40373143	    -11.42738008	    -11.20662077	      1.86696280	    -12.14159133	     -9.91403654	      3.41303259	    -12.14159133	     -6.89679978	      3.41303259	     -9.99895757	     -5.60361211	      2.86248913	     -9.28474631	     -3.44809817	      2.17437998	     -8.57053506	    -43.10364088	     15.87929065	    -63.55565977	      0.00000000	      0.00000000	     20.19409332	      2.05485313	    -39.44337200	    115.11632904	     32.54428906	    -38.17873179	     39.62030450	     89.99559364	      0.00000000	      0.00000000	     34.63073009	      1.94199299	     36.43734267	     37.89934280	     89.99559364	      0.00000000	      0.00000000
      6.23333333	    134.17210543	     74.72683340	    -90.63116624	     -0.35494370	      0.36188283	      0.22968671	    -24.59364372	     -0.98358872	    -35.79646106	     20.83624513	      0.36366108	      0.00000000	      0.00000000	      0.00000000	    -37.66334862	     -4.15122468	    -33.93644188	      0.14534814	      0.00253680	   -116.95563933	    -15.60324721	      0.00000000	     -6.03249463	      1.40402223	    -11.42803748	    -11.20294577	      1.86734957	    -12.14228982	     -9.91078542	      3.41373966	    -12.14228982	     -6.89453811	      3.41373966	     -9.99953279	     -5.60177451	      2.86308214	     -9.28528045	     -3.44696743	      2.17483044	     -8.57102811	    -43.08950586	     15.88258031	    -63.55931605	      0.00000000	      0.00000000	     20.19144734	      2.04506042	    -39.42840084	    115.11498145	     32.50400250	    -38.19432108	     39.62837897	     89.99559364	      0.00000000	      0.00000000	     34.62312540	      1.94912523	     36.45397686	     37.89944820	     89.99559364	      0.00000000	      0.00000000
      6.26666667	    134.22660219	     74.72406107	    -90.62642430	     -0.35504822	      0.36185513	      0.22966976	    -24.62403665	     -0.96424412	    -35.79078525	     20.81623209	      0.36331179	      0.00000000	      0.00000000	      0.00000000	    -37.65396503	     -4.17365169	    -33.90569449	      0.14391382	      0.00251177	   -116.91509625	    -15.61787910	      0.00000000	     -6.02884379	      1.40526234	    -11.43198976	    -11.19616581	      1.86899891	    -12.14648912	     -9.90478747	      3.41675485	    -12.14648912	     -6.89036557	      3.41675485	    -10.00299104	     -5.59838435	      2.86561096	     -9.28849168	     -3.44488134	      2.17675136	     -8.57399232	    -43.06342833	     15.89660864	    -63.58129745	      0.00000000	      0.00000000	     20.18681426	      2.03051252	    -39.43012457	    115.09791987	     32.48771934	    -38.20577437	     39.62430029	     89.99559364	      0.00000000	      0.00000000	     34.62325946	      1.96834723	     36.47623879	     37.89212481	     89.99559364	      0.00000000	      0.00000000
